<?xml version="1.0" standalone="no"?>
<!DOCTYPE svg PUBLIC "-//W3C//DTD SVG 20010904//EN"
 "http://www.w3.org/TR/2001/REC-SVG-20010904/DTD/svg10.dtd">
<svg version="1.0" xmlns="http://www.w3.org/2000/svg"
 width="128pt" height="72pt" viewBox="0 0 1280.000000 720.000000"
 preserveAspectRatio="xMidYMid meet">

<g transform="translate(0.000000,720.000000) scale(0.100000,-0.100000)"
fill="#000000" stroke="none">
<path d="M1341 5159 c-61 -12 -157 -59 -216 -106 -156 -124 -301 -418 -398
-808 -62 -248 -142 -685 -135 -741 3 -32 37 -45 55 -22 6 7 18 67 27 133 68
489 204 929 361 1164 56 85 156 180 221 211 168 79 306 -2 449 -265 70 -127
165 -376 275 -717 240 -742 324 -967 447 -1198 159 -300 319 -470 498 -530
116 -39 276 -25 389 32 l40 20 -50 43 -49 43 -76 -5 c-89 -7 -124 6 -199 74
-63 56 -128 155 -189 285 -89 190 -116 266 -371 1043 -210 640 -370 965 -575
1170 -151 151 -321 210 -504 174z"/>
<path d="M1953 5155 c-29 -8 -73 -25 -98 -38 l-45 -22 47 -47 48 -46 53 11
c148 31 281 -84 412 -358 78 -162 131 -308 314 -865 166 -504 258 -748 358
-949 155 -311 327 -499 512 -561 74 -24 205 -29 277 -10 39 11 137 48 148 57
3 2 -15 23 -39 48 l-43 44 -81 -6 c-72 -5 -87 -3 -126 17 -63 32 -146 122
-203 217 -97 166 -181 382 -336 863 -298 925 -446 1249 -675 1476 -136 135
-247 185 -404 183 -37 0 -91 -7 -119 -14z"/>
<path d="M2602 5159 c-51 -10 -152 -54 -152 -67 0 -4 20 -27 45 -49 44 -39 48
-41 83 -31 85 23 190 -17 263 -100 140 -159 231 -379 504 -1212 221 -677 365
-992 557 -1217 56 -66 149 -143 208 -173 146 -73 318 -71 470 5 210 106 383
424 499 915 71 302 135 684 120 713 -11 19 -44 23 -54 7 -4 -6 -15 -68 -26
-138 -108 -741 -322 -1250 -576 -1373 -29 -14 -73 -25 -109 -27 -109 -7 -192
47 -284 186 -110 163 -202 394 -385 962 -185 576 -243 733 -361 978 -169 353
-362 563 -568 618 -56 15 -167 17 -234 3z"/>
<path d="M1527 4737 c-109 -223 -192 -525 -272 -991 -40 -233 -42 -264 -19
-273 36 -14 49 11 66 133 60 411 157 767 280 1026 47 99 50 110 38 137 -6 16
-20 37 -30 46 -17 15 -20 11 -63 -78z"/>
<path d="M2167 4754 l-38 -76 23 -48 c13 -27 25 -49 28 -49 3 -1 24 35 47 80
l42 80 -27 44 c-15 25 -29 45 -32 45 -3 0 -23 -34 -43 -76z"/>
<path d="M9355 4298 c-3 -7 -4 -296 -3 -643 l3 -630 70 -3 c38 -2 80 0 92 3
l22 5 -2 638 -2 637 -88 3 c-64 2 -89 -1 -92 -10z"/>
<path d="M5832 3638 l3 -613 383 -3 382 -2 0 85 0 85 -287 2 -288 3 -3 528 -2
527 -95 0 -95 0 2 -612z"/>
<path d="M1928 3979 c-13 -35 -81 -477 -75 -492 10 -26 56 -22 61 6 17 83 56
347 55 372 -1 41 -34 133 -41 114z"/>
<path d="M3881 3938 c-5 -13 -21 -104 -35 -203 l-26 -180 19 -60 c13 -40 21
-55 26 -44 3 9 23 119 45 245 26 158 35 234 29 246 -14 25 -48 23 -58 -4z"/>
<path d="M4510 3938 c-5 -13 -16 -77 -25 -143 -48 -359 -158 -762 -271 -995
l-57 -115 23 -42 c13 -24 26 -43 30 -43 34 0 160 323 224 570 63 248 150 743
135 772 -14 25 -48 23 -59 -4z"/>
<path d="M6950 3946 c-197 -55 -304 -218 -304 -461 0 -213 76 -356 232 -432
76 -38 76 -38 201 -38 122 0 128 1 199 34 167 79 256 259 238 486 -16 209
-110 344 -277 401 -81 27 -210 32 -289 10z m203 -150 c70 -21 103 -50 139
-124 32 -64 33 -71 33 -187 -1 -107 -4 -126 -27 -175 -51 -113 -154 -165 -274
-140 -47 10 -65 21 -104 59 -63 63 -84 125 -84 251 1 134 22 202 83 261 67 65
142 83 234 55z"/>
<path d="M7848 3941 c-147 -47 -228 -151 -215 -275 14 -135 89 -194 315 -246
70 -17 146 -39 169 -50 91 -42 94 -135 5 -187 -42 -25 -57 -28 -132 -28 -52 0
-95 6 -110 14 -37 20 -71 53 -81 79 -8 21 -14 22 -99 22 -87 0 -90 -1 -90 -22
1 -72 89 -170 189 -210 48 -19 75 -22 186 -22 108 0 138 3 181 20 132 54 193
128 202 244 11 152 -75 226 -321 280 -140 31 -184 48 -213 83 -34 40 -28 90
15 129 84 76 270 56 316 -33 15 -29 17 -29 100 -29 81 0 85 1 85 23 0 36 -58
125 -102 157 -93 67 -276 91 -400 51z"/>
<path d="M8690 3942 c-78 -26 -110 -45 -152 -89 -64 -66 -84 -151 -58 -245 26
-93 96 -136 305 -188 155 -39 217 -65 229 -96 44 -115 -107 -208 -267 -163
-42 11 -103 60 -112 90 -6 18 -14 19 -98 17 -106 -3 -105 -3 -61 -95 46 -95
155 -152 309 -160 191 -11 334 51 398 172 27 51 30 164 5 210 -44 81 -116 121
-288 161 -200 46 -250 74 -250 140 0 121 225 169 328 71 17 -17 32 -37 32 -44
0 -10 23 -13 90 -13 50 0 90 4 90 9 0 5 -7 27 -15 50 -23 67 -64 109 -143 148
-68 34 -80 37 -180 40 -84 2 -119 -1 -162 -15z"/>
<path d="M9980 3946 c-143 -40 -243 -148 -285 -307 -19 -72 -19 -239 0 -314
22 -82 71 -170 119 -212 23 -20 70 -49 105 -66 119 -57 313 -48 428 20 56 32
109 86 134 135 33 64 29 68 -61 68 l-79 0 -43 -43 c-48 -48 -99 -67 -178 -67
-145 0 -227 78 -255 243 l-6 37 331 0 330 0 0 63 c-1 223 -107 388 -286 442
-59 18 -191 18 -254 1z m251 -171 c48 -34 88 -101 96 -164 l6 -41 -237 0
c-130 0 -236 2 -236 4 0 2 9 33 20 68 14 45 30 74 57 100 62 59 88 69 175 66
66 -3 82 -7 119 -33z"/>
<path d="M10848 3941 c-147 -47 -228 -151 -215 -275 14 -135 89 -193 315 -247
156 -36 200 -55 223 -94 23 -37 23 -48 3 -91 -31 -65 -161 -102 -262 -75 -46
13 -107 61 -117 92 -6 17 -16 19 -96 19 -85 0 -89 -1 -89 -22 0 -38 40 -106
87 -148 64 -56 137 -81 258 -87 153 -8 259 25 343 108 55 54 66 85 67 176 0
75 -2 85 -30 125 -39 54 -127 100 -245 128 -190 45 -211 52 -247 86 -32 30
-35 38 -30 71 12 73 98 120 203 111 67 -6 125 -36 144 -76 l15 -32 89 0 89 0
-7 32 c-10 50 -54 116 -98 149 -93 66 -276 89 -400 50z"/>
<path d="M11700 3946 c-94 -26 -180 -91 -211 -161 -34 -73 -21 -188 27 -245
44 -52 106 -79 270 -121 201 -50 233 -69 234 -141 1 -123 -232 -175 -345 -77
-19 17 -37 39 -40 50 -6 17 -16 19 -96 19 l-89 0 0 -26 c0 -36 45 -113 86
-148 60 -50 147 -78 255 -84 148 -7 261 28 341 105 98 95 103 251 10 338 -45
44 -95 64 -259 106 -197 49 -232 70 -233 135 -1 89 144 152 261 113 38 -13 99
-66 99 -86 0 -10 23 -13 90 -13 50 0 90 4 90 9 0 5 -7 27 -15 51 -43 121 -170
191 -343 189 -48 0 -107 -6 -132 -13z"/>
<path d="M3565 2764 l-39 -76 23 -44 c13 -24 28 -44 32 -44 5 0 26 33 46 74
l36 73 -22 47 c-13 25 -26 46 -30 46 -4 0 -25 -34 -46 -76z"/>
</g>
</svg>
